Coordinates
version=1
nRows=10
nColumns=63
inDegrees=yes

Units are S.I. units (second, meters, Newtons, ...)
If the header above contains a line with 'inDegrees', this indicates whether rotational values are in degrees (yes) or radians (no).

endheader
time	pelvis_tilt	pelvis_list	pelvis_rotation	pelvis_tx	pelvis_ty	pelvis_tz	hip_flexion_r	hip_adduction_r	hip_rotation_r	knee_angle_r	knee_angle_r_beta	ankle_angle_r	subtalar_angle_r	mtp_angle_r	hip_flexion_l	hip_adduction_l	hip_rotation_l	knee_angle_l	knee_angle_l_beta	ankle_angle_l	subtalar_angle_l	mtp_angle_l	L5_S1_Flex_Ext	L5_S1_Lat_Bending	L5_S1_axial_rotation	L4_L5_Flex_Ext	L4_L5_Lat_Bending	L4_L5_axial_rotation	L3_L4_Flex_Ext	L3_L4_Lat_Bending	L3_L4_axial_rotation	L2_L3_Flex_Ext	L2_L3_Lat_Bending	L2_L3_axial_rotation	L1_L2_Flex_Ext	L1_L2_Lat_Bending	L1_L2_axial_rotation	L1_T12_Flex_Ext	L1_T12_Lat_Bending	L1_T12_axial_rotation	Abs_r3	Abs_r2	Abs_r1	Abs_t1	Abs_t2	neck_flexion	neck_bending	neck_rotation	arm_flex_r	arm_add_r	arm_rot_r	elbow_flex_r	pro_sup_r	wrist_flex_r	wrist_dev_r	arm_flex_l	arm_add_l	arm_rot_l	elbow_flex_l	pro_sup_l	wrist_flex_l	wrist_dev_l
      3.25423729	      1.56870752	      3.26007654	     76.46862970	      0.22002624	      0.96902163	      0.53671035	      7.17357266	      4.51657943	      6.75282596	     17.76459696	      0.31005071	     22.14681222	     -8.35587691	      0.00000000	      9.59400980	     -3.16525838	     -7.11787759	     23.05933033	      0.40246124	     29.81712367	    -13.94202903	      0.00000000	     -0.35627592	      0.55192831	      0.59701209	     -0.66164001	      0.73406465	      0.63432534	     -0.58532571	      1.34195850	      0.63432534	     -0.40718775	      1.34195850	      0.52238558	     -0.33083782	      1.12549221	      0.48507232	     -0.20357606	      0.85493695	      0.44775907	     -2.54484327	      6.24352344	      3.32040213	      0.00000000	      0.00000000	     -7.05160000	      1.91467777	    -13.69147303	     34.71780572	      0.55959042	    132.12266187	      0.40924484	      1.12789818	    -25.62826426	     -6.39468672	      8.14936764	    -12.94039315	    -33.90959186	     24.42478927	     67.97186620	    -29.78287227	    -11.17655302
      3.27118644	      1.68724245	      2.96868241	     76.03154099	      0.21951577	      0.96949794	      0.53926831	      7.41547778	      4.63271647	      6.84552703	     17.40376020	      0.30375292	     21.71157595	     -7.62752754	      0.00000000	      9.84342424	     -3.41003528	     -7.64424104	     22.78632725	      0.39769643	     29.90865204	    -13.71293563	      0.00000000	     -0.33658208	      0.60914172	      0.75526666	     -0.62506658	      0.81015849	      0.80247083	     -0.55297070	      1.48106718	      0.80247083	     -0.38467966	      1.48106718	      0.66085833	     -0.31255012	      1.24216180	      0.61365416	     -0.19232300	      0.94356053	      0.56645000	     -2.40417213	      6.89073299	      4.20056661	      0.00000000	      0.00000000	     -7.07259776	      1.63725185	     -9.55509453	     34.82583263	      1.40292435	    132.46194862	      0.43584842	      1.13710457	    -25.97461430	     -8.23970537	     10.78694036	    -10.68005978	    -33.10120677	     26.36736321	     69.77327681	    -34.63372483	    -11.34671090
      3.28813559	      1.71082730	      2.77760976	     75.78328844	      0.21880266	      0.96999935	      0.54206655	      7.59962936	      4.60469627	      6.76286149	     17.07292407	      0.29797874	     21.36452866	     -6.84732811	      0.00000000	     10.05733701	     -3.49072952	     -7.92863233	     22.51465680	      0.39295489	     29.89641764	    -13.55078703	      0.00000000	     -0.33221322	      0.64159441	      0.90430811	     -0.61695318	      0.85332056	      0.96082737	     -0.54579311	      1.55997264	      0.96082737	     -0.37968649	      1.55997264	      0.79126959	     -0.30849320	      1.30833931	      0.73475034	     -0.18982664	      0.99382973	      0.67823108	     -2.37296583	      7.25784423	      5.02949041	      0.00000000	      0.00000000	     -7.29795572	      1.41356747	     -6.17982633	     34.69886112	      2.32355116	    135.48210108	      0.44287319	      1.21703217	    -27.89028614	     -9.98472848	     12.86006707	     -8.66020433	    -29.29636856	     29.57589648	     73.65233140	    -40.92716449	     -9.16425140
      3.30508475	      1.64884974	      2.62297715	     75.65060832	      0.21808888	      0.97033613	      0.54491884	      7.83426214	      4.50075557	      6.62405034	     16.88099460	      0.29462894	     20.95127940	     -6.39405714	      0.00000000	     10.27366482	     -3.44652777	     -7.98424119	     22.25614513	      0.38844301	     29.73252071	    -13.53728772	      0.00000000	     -0.32549357	      0.65124371	      1.00140897	     -0.60447411	      0.86615413	      1.06399703	     -0.53475339	      1.58343395	      1.06399703	     -0.37200660	      1.58343395	      0.87623285	     -0.30225333	      1.32801617	      0.81364479	     -0.18598703	      1.00877650	      0.75105673	     -2.32496804	      7.36699907	      5.56953628	      0.00000000	      0.00000000	     -7.63407235	      1.17973955	     -3.34397716	     34.52246832	      3.45412757	    141.81328880	      0.42319962	      1.39613924	    -30.81624840	    -10.94875096	     14.26928933	     -7.48052263	    -22.16665694	     33.52018313	     77.97056225	    -46.31114105	     -6.32890295
      3.32203390	      1.54043160	      2.54673082	     75.59412590	      0.21745431	      0.97051832	      0.54765096	      8.05440211	      4.35966251	      6.51547127	     16.82713287	      0.29368887	     20.53270660	     -6.30126607	      0.00000000	     10.39550318	     -3.32889373	     -8.00102472	     21.98654248	      0.38373756	     29.34685519	    -13.60368982	      0.00000000	     -0.31461879	      0.64395945	      1.03471109	     -0.58427855	      0.85646607	      1.09938053	     -0.51688721	      1.56572301	      1.09938053	     -0.35957781	      1.56572301	      0.90537220	     -0.29215501	      1.31316211	      0.84070276	     -0.17977318	      0.99749319	      0.77603332	     -2.24729054	      7.28459811	      5.75475268	      0.00000000	      0.00000000	     -8.14327194	      0.92701694	     -0.67433420	     34.50625305	      4.85951093	    149.72126027	      0.40608772	      1.65661163	    -33.21156781	    -11.52504342	     15.51475865	     -7.30762617	    -13.43617626	     37.40222745	     82.55387860	    -48.70477896	     -4.66350467
      3.33898305	      1.33412848	      2.52797009	     75.61559850	      0.21713432	      0.97052866	      0.54991142	      8.25293300	      4.14365410	      6.51285457	     16.87261249	      0.29448264	     20.16655964	     -6.52599787	      0.00000000	     10.36441189	     -3.08834567	     -7.97093603	     21.59547542	      0.37691215	     28.78472276	    -13.67450868	      0.00000000	     -0.28520861	      0.61526189	      0.98180657	     -0.52966092	      0.81829832	      1.04316948	     -0.46856923	      1.49594777	      1.04316948	     -0.32596492	      1.49594777	      0.85908075	     -0.26484472	      1.25464205	      0.79771784	     -0.16296820	      0.95304067	      0.73635493	     -2.03721660	      6.95996559	      5.46051361	      0.00000000	      0.00000000	     -8.84563129	      0.74788796	      2.25668479	     34.69631486	      6.72465243	    156.84047771	      0.40646630	      1.93024784	    -33.61053462	    -12.41367014	     16.89919377	     -7.75719025	     -5.53122410	     41.04686747	     85.77272638	    -47.13918667	     -4.15498835
      3.35593220	      1.02134472	      2.57598683	     75.73690593	      0.21712274	      0.97046434	      0.55166063	      8.38172494	      3.82540994	      6.50818075	     16.94579928	      0.29575999	     19.87045636	     -6.92918146	      0.00000000	     10.18680208	     -2.72357051	     -7.97085705	     21.11190461	      0.36847225	     28.05293310	    -13.70284247	      0.00000000	     -0.24230759	      0.56439507	      0.85079049	     -0.44998943	      0.75064545	      0.90396490	     -0.39808714	      1.37227018	      0.90396490	     -0.27693335	      1.37227018	      0.74444168	     -0.22500683	      1.15091444	      0.69126728	     -0.13845456	      0.87424797	      0.63809287	     -1.73077890	      6.38454996	      4.73184148	      0.00000000	      0.00000000	     -9.63051927	      0.71971804	      5.50807679	     35.02185680	      9.05914194	    161.22697424	      0.43784342	      2.00067436	    -31.39083930	    -14.18984584	     18.42374393	     -8.16013141	      0.36755067	     44.39830345	     86.99852356	    -43.04593299	     -2.93649050
      3.37288136	      0.69098691	      2.68924059	     75.97941942	      0.21717516	      0.97046997	      0.55297062	      8.38076386	      3.48057628	      6.54580708	     16.96330898	      0.29606559	     19.67685563	     -7.41022300	      0.00000000	      9.87661621	     -2.29380068	     -7.80877628	     20.56855467	      0.35898900	     27.31166114	    -13.75122778	      0.00000000	     -0.19813299	      0.50547564	      0.67671056	     -0.36795277	      0.67228260	      0.71900497	     -0.32551269	      1.22901347	      0.71900497	     -0.22644619	      1.22901347	      0.59212174	     -0.18398629	      1.03076593	      0.54982733	     -0.11321319	      0.78298177	      0.50753292	     -1.41524412	      5.71804154	      3.76366112	      0.00000000	      0.00000000	    -10.23541125	      1.04155470	      9.05631571	     35.44716749	     11.53898378	    161.52256781	      0.51963985	      1.70817269	    -25.28303296	    -17.31225978	     19.60591424	     -8.04123813	      3.92782005	     47.92038785	     87.49926897	    -37.34423772	      1.19853393
      3.38983051	      0.35170643	      2.82400565	     76.35519181	      0.21689461	      0.97056520	      0.55376145	      8.28549285	      3.07578524	      6.41254923	     16.90447761	      0.29503879	     19.75609271	     -7.67597492	      0.00000000	      9.51692867	     -1.81027747	     -7.55591790	     20.01378440	      0.34930643	     26.60500463	    -13.78228656	      0.00000000	     -0.15284994	      0.44871829	      0.47043986	     -0.28385762	      0.59679532	      0.49984235	     -0.25111716	      1.09101364	      0.49984235	     -0.17469219	      1.09101364	      0.41163487	     -0.14193645	      0.91502633	      0.38223238	     -0.08733845	      0.69506463	      0.35282989	     -1.09179181	      5.07599100	      2.61644534	      0.00000000	      0.00000000	    -10.51737998	      1.31566616	     12.71176157	     35.99719242	     13.78293612	    155.19740761	      0.76615674	      1.28875419	    -10.96415530	    -21.41900014	     20.02953429	     -7.30074431	      5.63039897	     51.74477217	     87.14462686	    -31.05775350	      6.29497576
      3.40677966	      1.52565661	      2.45665683	     76.79604494	      0.21118152	      0.96942937	      0.55279324	      8.19460614	      3.81624786	      4.95004767	     16.55978547	      0.28902278	     20.05524542	     -6.21018683	      0.00000000	      9.71036308	     -2.56144905	     -6.10547416	     20.22390930	      0.35297380	     26.84470824	    -14.73937806	      0.00000000	     -0.10272323	      0.58810032	      0.87609776	     -0.19076731	      0.78217343	      0.93085387	     -0.16876399	      1.42990713	      0.93085387	     -0.11740238	      1.42990713	      0.76658554	     -0.09538879	      1.19925418	      0.71182943	     -0.05869605	      0.91096740	      0.65707332	     -0.73374174	      6.65270848	      4.87259291	      0.00000000	      0.00000000	     -9.17975633	      2.69162071	     11.32080204	     26.32797260	      1.19713920	     46.80119126	     37.60144772	     70.21899086	     -0.52079676	     -1.12611229	     22.15735682	     -3.33600547	     10.54291995	     52.80718228	     85.29816002	    -26.74360767	      7.87455544
